# Blender 4.1.1
# www.blender.org
mtllib Item.mtl
o 立方体
v 0.001600 -0.514753 -0.000859
v -0.001011 0.514753 -0.001482
v -0.001163 -0.514753 0.000231
v -0.232912 0.000000 0.232912
v -0.232912 0.000000 -0.232912
v 0.232912 0.000000 -0.232912
v 0.232912 0.000000 0.232912
v -0.001292 -0.514753 -0.003017
v -0.001292 -0.514753 0.000231
v -0.001292 0.000000 0.232912
v -0.001292 0.000000 -0.232912
v -0.001721 0.514753 0.000000
v 0.232912 0.000000 0.000000
v -0.232912 0.000000 0.000000
vn -0.9117 0.4107 -0.0028
vn -0.0000 0.4101 -0.9121
vn 0.9104 0.4137 -0.0000
vn -0.0000 0.4144 0.9101
vn -0.0000 -1.0000 -0.0000
vn -0.0043 -0.4135 0.9105
vn 0.9103 -0.4139 0.0107
vn 0.0083 -0.4109 -0.9116
vn -0.9100 -0.4146 -0.0000
vn -0.0086 -0.4110 -0.9116
vn -0.0000 -0.4119 0.9112
vn 0.9121 -0.4099 -0.0000
vn -0.9117 0.4108 0.0028
vt 0.784890 0.784890
vt 0.784890 0.999840
vt 0.569939 0.999840
vt 0.569939 0.784890
vt 0.228403 0.227316
vt 0.456449 0.456627
vt 0.228403 0.456627
vt 0.485166 0.662937
vt 0.281182 0.458953
vt 0.485166 0.458953
vt 0.485166 0.253837
vt 0.281182 0.050984
vt 0.485166 0.050984
vt 0.689151 0.662937
vt 0.689151 0.458953
vt 0.894267 0.458953
vt 0.689151 0.253837
vt 0.689151 0.050984
vt 0.000357 0.227316
vt 0.000357 0.456627
vt 0.784890 0.569939
vt 0.000357 0.000535
vt 0.228403 0.000535
vt 0.281182 0.253837
vt 0.456449 0.227316
vt 0.999840 0.569939
vt 0.999840 0.784890
vt 0.228403 0.684673
vt 0.456449 0.684673
vt 0.999840 0.999840
s 0
usemtl マテリアル
f 14/1/1 12/2/1 2/3/1 5/4/1
f 11/5/2 2/6/2 6/7/2
f 13/8/3 2/9/3 7/10/3
f 10/11/4 2/12/4 4/13/4
f 1/14/5 3/15/5 9/16/5
f 9/17/6 10/11/6 4/13/6 1/18/6
f 1/14/7 13/8/7 7/10/7 3/15/7
f 8/19/8 11/5/8 6/7/8 1/20/8
f 1/21/9 14/1/9 5/4/9
f 1/22/10 5/23/10 11/5/10 8/19/10
f 3/15/11 7/10/11 10/11/11 9/17/11
f 7/10/4 2/24/4 10/11/4
f 5/23/2 2/25/2 11/5/2
f 1/26/9 4/27/9 14/1/9
f 1/20/12 6/7/12 13/28/12
f 6/7/3 2/29/3 13/28/3
f 4/27/13 2/30/13 12/2/13 14/1/13
