# Blender 4.1.1
# www.blender.org
mtllib chocolate.mtl
o 立方体
v -1.946418 0.000000 0.051838
v -1.946418 2.000000 0.051838
v -1.946418 -0.000000 -0.051838
v -1.946418 2.000000 -0.051838
v 1.946418 0.000000 0.051838
v 1.946418 2.000000 0.051838
v 1.946418 -0.000000 -0.051838
v 1.946418 2.000000 -0.051838
v -0.006122 2.000000 0.051838
v 0.194172 0.000000 0.051838
vn -1.0000 -0.0000 -0.0000
vn -0.0000 -0.0000 -1.0000
vn 1.0000 -0.0000 -0.0000
vn -0.0000 -0.0000 1.0000
vn -0.0000 -1.0000 -0.0000
vn -0.0000 1.0000 -0.0000
vt 0.500000 0.000087
vt 0.250043 0.250043
vt 0.250043 0.000087
vt 0.500000 0.250043
vt 0.250043 0.500000
vt 0.500000 0.500000
vt 0.250043 0.749957
vt 0.500000 0.749957
vt 0.250043 0.862467
vt 0.137533 0.749957
vt 0.749957 0.500000
vt 0.749957 0.749957
vt 0.625371 0.749957
vt 0.500000 0.875328
vt 0.250043 0.999913
vt 0.000087 0.749957
vt 0.000087 0.500000
vt 0.500000 0.999913
s 0
usemtl マテリアル
f 2/1/1 3/2/1 1/3/1
f 4/4/2 7/5/2 3/2/2
f 8/6/3 5/7/3 7/5/3
f 6/8/4 10/9/4 5/7/4
f 7/5/5 5/7/5 10/10/5
f 4/11/6 2/12/6 9/13/6
f 9/14/4 1/15/4 10/9/4
f 2/1/1 4/4/1 3/2/1
f 4/4/2 8/6/2 7/5/2
f 8/6/3 6/8/3 5/7/3
f 6/8/4 9/14/4 10/9/4
f 1/16/5 3/17/5 10/10/5
f 3/17/5 7/5/5 10/10/5
f 6/8/6 8/6/6 9/13/6
f 8/6/6 4/11/6 9/13/6
f 9/14/4 2/18/4 1/15/4
